# xmcd CD database file
#
# Track frame offsets:
#	183
#	8258
#	28945
#	54335
#	75565
#	87828
#	110548
#	132068
#	155223
#	176780
#	193705
#	210423
#
# Disc length: 3006 seconds
#
# Revision: 0
# Processed by: cddbd v1.4PL0 Copyright (c) Steve Scherf et al.
# Submitted via: CDex 1.50beta9
#
DISCID=920bbc0c
DTITLE=Diederik Wissels - Kamook
DYEAR=1992
DGENRE=Jazz
TTITLE0=Prologue
TTITLE1=Adrift
TTITLE2=Now
TTITLE3=Kamook
TTITLE4=Song for myself
TTITLE5=City of glass
TTITLE6=I recall
TTITLE7=She (the land of old)
TTITLE8=Peace please
TTITLE9=Black soil
TTITLE10=If you stay
TTITLE11=Epilogue
EXTD=YEAR: 1992
EXTT0=
EXTT1=
EXTT2=
EXTT3=
EXTT4=
EXTT5=
EXTT6=
EXTT7=
EXTT8=
EXTT9=
EXTT10=
EXTT11=
PLAYORDER=
